# This file uses centimeters as units for non-parametric coordinates.

mtllib Flag.mtl
g default
v -0.009845 2.319682 0.046262
v 0.065994 2.319681 0.043502
v -0.009845 3.014391 0.046262
v 0.065994 3.014391 0.043502
v -0.009845 3.014391 -0.046170
v 0.065994 3.014391 -0.043422
v -0.009845 2.319682 -0.046170
v 0.065994 2.319681 -0.043422
v 0.258814 2.254785 -0.018323
v 0.455513 2.127555 -0.014743
v 0.608435 1.909128 -0.011959
v 0.686594 1.662712 -0.010537
v 0.644296 1.387721 -0.011307
v 0.500951 1.013925 -0.005993
v 0.258814 2.254785 0.018300
v 0.455513 2.127555 0.014707
v 0.608435 1.909128 0.011913
v 0.686594 1.662712 0.010485
v 0.644296 1.387721 0.011257
v 0.500952 1.013924 0.006055
v 0.384214 2.437950 -0.016040
v 0.542389 2.260831 -0.013161
v 0.704865 2.014020 -0.010204
v 0.777251 1.720196 -0.008887
v 0.735046 1.382067 -0.009655
v 0.546433 0.971157 -0.005638
v 0.384214 2.437950 0.016009
v 0.542389 2.260831 0.013119
v 0.704865 2.014020 0.010151
v 0.777251 1.720196 0.008828
v 0.735046 1.382067 0.009599
v 0.546434 0.971156 0.005691
v 0.162404 2.287233 -0.020077
v 0.197081 2.660784 -0.019446
v 0.197081 2.660784 0.019428
v 0.162404 2.287233 0.020062
v -0.036872 3.014391 0.000048
v 0.082601 3.014391 0.000039
v 0.213688 2.660784 -0.000009
v 0.400821 2.437950 -0.000016
v 0.558996 2.260831 -0.000022
v 0.721472 2.014020 -0.000027
v 0.793859 1.720196 -0.000030
v 0.751654 1.382067 -0.000028
v 0.557349 0.960892 0.000026
v 0.483078 1.030731 0.000033
v 0.595579 1.387721 -0.000023
v 0.637877 1.662712 -0.000024
v 0.559718 1.909128 -0.000022
v 0.406796 2.127555 -0.000016
v 0.258814 2.232101 -0.000011
v 0.162404 2.256429 -0.000008
v -0.017032 2.275089 0.000046
v -0.036872 2.319682 0.000048
v -0.029413 2.667033 0.055494
v 0.065997 2.667033 0.060366
v 0.179744 2.474008 0.034531
v 0.321516 2.346367 0.030026
v 0.498953 2.194193 0.024379
v 0.656651 1.961574 0.019359
v 0.731924 1.691453 0.016968
v 0.689672 1.384892 0.018341
v 0.523694 0.992539 0.010308
v 0.524989 0.931266 0.000066
v 0.523690 0.992542 -0.010175
v 0.689670 1.384895 -0.018300
v 0.731922 1.691456 -0.016972
v 0.656649 1.961574 -0.019392
v 0.498949 2.194193 -0.024450
v 0.321512 2.346367 -0.030143
v 0.179741 2.474008 -0.034699
v 0.065990 2.667039 -0.060453
v -0.009848 2.667040 -0.054752
v -0.036872 2.667037 -0.000050
vt 0.375000 0.000000
vt 0.625000 0.000000
vt 0.375000 0.250000
vt 0.625000 0.250000
vt 0.375000 0.500000
vt 0.625000 0.500000
vt 0.375000 0.750000
vt 0.625000 0.750000
vt 0.375000 1.000000
vt 0.625000 1.000000
vt 0.875000 0.000000
vt 0.875000 0.250000
vt 0.125000 0.000000
vt 0.125000 0.250000
vt 0.625000 0.000000
vt 0.625000 0.000000
vt 0.625000 0.000000
vt 0.625000 0.000000
vt 0.625000 0.000000
vt 0.625000 0.000000
vt 0.875000 0.000000
vt 0.875000 0.000000
vt 0.875000 0.000000
vt 0.875000 0.000000
vt 0.875000 0.000000
vt 0.875000 0.000000
vt 0.875000 0.250000
vt 0.875000 0.250000
vt 0.875000 0.250000
vt 0.875000 0.250000
vt 0.875000 0.250000
vt 0.875000 0.250000
vt 0.625000 0.250000
vt 0.625000 0.250000
vt 0.625000 0.250000
vt 0.625000 0.250000
vt 0.625000 0.250000
vt 0.625000 0.250000
vt 0.875000 0.000000
vt 0.875000 0.250000
vt 0.625000 0.250000
vt 0.625000 0.000000
vt 0.250000 0.250000
vt 0.375000 0.375000
vt 0.625000 0.375000
vt 0.750000 0.250000
vt 0.750000 0.250000
vt 0.750000 0.250000
vt 0.750000 0.250000
vt 0.750000 0.250000
vt 0.750000 0.250000
vt 0.750000 0.250000
vt 0.750000 0.250000
vt 0.750000 0.000000
vt 0.750000 0.000000
vt 0.750000 0.000000
vt 0.750000 0.000000
vt 0.750000 0.000000
vt 0.750000 0.000000
vt 0.750000 0.000000
vt 0.625000 0.875000
vt 0.750000 0.000000
vt 0.250000 0.000000
vt 0.375000 0.875000
vt 0.375000 0.125000
vt 0.625000 0.125000
vt 0.625000 0.125000
vt 0.625000 0.125000
vt 0.625000 0.125000
vt 0.625000 0.125000
vt 0.625000 0.125000
vt 0.625000 0.125000
vt 0.625000 0.125000
vt 0.750000 0.125000
vt 0.875000 0.125000
vt 0.875000 0.125000
vt 0.875000 0.125000
vt 0.875000 0.125000
vt 0.875000 0.125000
vt 0.875000 0.125000
vt 0.875000 0.125000
vt 0.625000 0.625000
vt 0.875000 0.125000
vt 0.125000 0.125000
vt 0.375000 0.625000
vt 0.250000 0.125000
vn -0.457552 -0.000000 0.889183
vn 0.148452 0.017374 0.988767
vn 0.261867 0.228091 0.937763
vn -0.432088 0.180245 0.883636
vn -0.871494 0.150461 -0.466754
vn 0.771497 0.488686 -0.407403
vn 0.278433 0.241856 -0.929506
vn -0.447562 0.167803 -0.878368
vn 0.154490 0.018572 -0.987820
vn -0.446801 0.000000 -0.894634
vn -0.447318 -0.091707 -0.889661
vn 0.060526 -0.149355 -0.986930
vn -0.162216 -0.643380 -0.748163
vn -0.846314 -0.094275 -0.524275
vn 0.261816 -0.136010 -0.955486
vn -0.082513 -0.189511 -0.978405
vn 0.033695 -0.043884 -0.998468
vn -0.881529 -0.000000 -0.472129
vn -0.279204 -0.514817 -0.810560
vn -0.084723 -0.601632 -0.794268
vn 0.041629 -0.191001 -0.980707
vn -0.072798 -0.161427 -0.984196
vn -0.298620 -0.364294 -0.882109
vn -0.124929 -0.127997 -0.983875
vn -0.245810 -0.143098 -0.958697
vn -0.150406 -0.076986 -0.985622
vn -0.221342 -0.018879 -0.975014
vn -0.172026 -0.006382 -0.985072
vn -0.226747 0.057364 -0.972263
vn -0.184205 0.042816 -0.981955
vn -0.236065 0.071589 -0.969097
vn -0.189850 0.043479 -0.980850
vn 0.040078 0.001640 -0.999195
vn 0.140289 -0.000998 -0.990110
vn 0.392469 0.120196 -0.911878
vn 0.201899 0.161400 -0.966016
vn 0.036531 -0.000162 -0.999332
vn 0.209651 0.156000 -0.965252
vn 0.036681 -0.002083 -0.999325
vn 0.241477 0.112370 -0.963879
vn 0.047585 -0.009285 -0.998824
vn 0.272848 0.020928 -0.961830
vn 0.032407 -0.019257 -0.999289
vn 0.275217 -0.084873 -0.957628
vn 0.763034 0.395975 -0.510864
vn 0.593281 0.510808 -0.622168
vn 0.550027 0.397622 -0.734416
vn 0.513754 0.205234 -0.833028
vn 0.491073 0.021143 -0.870862
vn 0.456365 -0.122759 -0.881284
vn 0.409941 -0.200675 -0.889763
vn 0.392111 0.119740 0.912092
vn 0.140537 -0.000994 0.990075
vn 0.039882 0.001667 0.999203
vn 0.201367 0.160968 0.966199
vn 0.036502 -0.000071 0.999334
vn 0.209402 0.155812 0.965336
vn 0.036798 -0.002001 0.999321
vn 0.241583 0.112412 0.963847
vn 0.047947 -0.009287 0.998807
vn 0.273458 0.020993 0.961655
vn 0.032795 -0.019257 0.999277
vn 0.276437 -0.085087 0.957258
vn 0.034305 -0.043960 0.998444
vn 0.263204 -0.136305 0.955063
vn 0.771572 0.488556 0.407418
vn -0.930994 0.183569 0.315518
vn 0.763064 0.395918 0.510864
vn 0.593309 0.510795 0.622152
vn 0.550062 0.397610 0.734396
vn 0.513796 0.205227 0.833004
vn 0.491119 0.021143 0.870836
vn 0.456464 -0.122682 0.881243
vn 0.410164 -0.200463 0.889708
vn -0.081332 -0.189202 0.978564
vn -0.185097 0.043261 0.981768
vn -0.226629 0.057500 0.972282
vn -0.235894 0.071842 0.969120
vn -0.190939 0.044230 0.980605
vn -0.172661 -0.006302 0.984961
vn -0.221277 -0.018879 0.975028
vn -0.150543 -0.076990 0.985601
vn -0.245746 -0.143100 0.958713
vn -0.124761 -0.127754 0.983928
vn -0.298563 -0.364301 0.882125
vn -0.072497 -0.160850 0.984313
vn -0.279154 -0.514825 0.810573
vn 0.042459 -0.190558 0.980757
vn -0.084360 -0.601832 0.794154
vn 0.060479 -0.144494 0.987656
vn -0.161855 -0.643542 0.748102
vn -0.911306 -0.123297 0.392836
vn -0.433221 -0.104811 0.895173
vn -0.947089 0.000001 0.320972
s 1
g pCube2
usemtl initialShadingGroup
f 55/65/1 56/66/2 4/4/3 3/3/4
s 2
f 37/44/5 38/45/6 6/6/7 5/5/8
f 5/5/8 6/6/7 72/82/9 73/85/10
f 7/7/11 8/8/12 53/61/13 54/64/14
f 26/32/15 64/74/16 65/75/17
f 73/84/10 74/86/18 37/43/5 5/14/8
f 51/59/19 52/60/20 33/39/21 9/21/22
f 50/58/23 51/59/19 9/21/22 10/22/24
f 49/57/25 50/58/23 10/22/24 11/23/26
f 48/56/27 49/57/25 11/23/26 12/24/28
f 47/55/29 48/56/27 12/24/28 13/25/30
f 46/54/31 47/55/29 13/25/30 14/26/32
f 70/80/33 71/81/34 34/40/35 21/27/36
f 69/79/37 70/80/33 21/27/36 22/28/38
f 68/78/39 69/79/37 22/28/38 23/29/40
f 67/77/41 68/78/39 23/29/40 24/30/42
f 66/76/43 67/77/41 24/30/42 25/31/44
f 65/75/17 66/76/43 25/31/44 26/32/15
f 34/40/35 39/47/45 40/48/46 21/27/36
f 21/27/36 40/48/46 41/49/47 22/28/38
f 22/28/38 41/49/47 42/50/48 23/29/40
f 23/29/40 42/50/48 43/51/49 24/30/42
f 24/30/42 43/51/49 44/52/50 25/31/44
f 25/31/44 44/52/50 45/53/51 26/32/15
s 1
f 35/41/52 57/67/53 58/68/54 27/33/55
f 27/33/55 58/68/54 59/69/56 28/34/57
f 28/34/57 59/69/56 60/70/58 29/35/59
f 29/35/59 60/70/58 61/71/60 30/36/61
f 30/36/61 61/71/60 62/72/62 31/37/63
f 31/37/63 62/72/62 63/73/64 32/38/65
s 2
f 71/81/34 72/83/9 6/12/7 34/40/35
f 6/12/7 38/46/6 39/47/45 34/40/35
s 1
f 4/4/3 56/66/2 57/67/53 35/41/52
s 2
f 52/60/20 53/62/13 8/11/12 33/39/21
s 1
f 3/3/4 4/4/3 38/45/66 37/44/67
f 39/47/68 38/46/66 4/4/3 35/41/52
f 40/48/69 39/47/68 35/41/52 27/33/55
f 41/49/70 40/48/69 27/33/55 28/34/57
f 42/50/71 41/49/70 28/34/57 29/35/59
f 43/51/72 42/50/71 29/35/59 30/36/61
f 44/52/73 43/51/72 30/36/61 31/37/63
f 45/53/74 44/52/73 31/37/63 32/38/65
f 32/38/65 64/74/75 45/53/74
f 19/19/76 47/55/77 46/54/78 20/20/79
f 18/18/80 48/56/81 47/55/77 19/19/76
f 17/17/82 49/57/83 48/56/81 18/18/80
f 16/16/84 50/58/85 49/57/83 17/17/82
f 15/15/86 51/59/87 50/58/85 16/16/84
f 36/42/88 52/60/89 51/59/87 15/15/86
f 2/2/90 53/62/91 52/60/89 36/42/88
f 54/64/92 53/61/91 2/10/90 1/9/93
f 37/43/67 74/86/94 55/65/1 3/3/4
f 1/1/93 2/2/90 56/66/2 55/65/1
f 57/67/53 56/66/2 2/2/90 36/42/88
f 58/68/54 57/67/53 36/42/88 15/15/86
f 59/69/56 58/68/54 15/15/86 16/16/84
f 60/70/58 59/69/56 16/16/84 17/17/82
f 61/71/60 60/70/58 17/17/82 18/18/80
f 62/72/62 61/71/60 18/18/80 19/19/76
f 63/73/64 62/72/62 19/19/76 20/20/79
f 20/20/79 64/74/75 63/73/64
s 2
f 14/26/32 64/74/16 46/54/31
f 13/25/30 66/76/43 65/75/17 14/26/32
f 12/24/28 67/77/41 66/76/43 13/25/30
f 11/23/26 68/78/39 67/77/41 12/24/28
f 10/22/24 69/79/37 68/78/39 11/23/26
f 9/21/22 70/80/33 69/79/37 10/22/24
f 33/39/21 71/81/34 70/80/33 9/21/22
f 8/11/12 72/83/9 71/81/34 33/39/21
f 73/85/10 72/82/9 8/8/12 7/7/11
f 7/13/11 54/63/14 74/86/18 73/84/10
s 1
f 55/65/1 74/86/94 54/63/92 1/1/93
f 20/20/79 46/54/78 64/74/75
f 63/73/64 64/74/75 32/38/65
s 2
f 65/75/17 64/74/16 14/26/32
f 45/53/51 64/74/16 26/32/15
